<svg width="47" height="47" viewBox="0 0 47 47" fill="none" xmlns="http://www.w3.org/2000/svg">
<rect width="47" height="47" rx="6" fill="#EDF9FB"/>
<path fill-rule="evenodd" clip-rule="evenodd" d="M13.9759 17.3692C14.3481 17.1304 14.7915 17 15.2499 17H31.75C32.2084 17 32.6518 17.1304 33.024 17.3692L23.9818 24.4577C23.7033 24.6765 23.2965 24.6765 23.018 24.4577L13.9759 17.3692ZM33.9081 18.5041C33.9681 18.6957 34 18.8961 34 19.1V28.9C34 29.4574 33.7628 29.9911 33.3409 30.3849C32.9191 30.7786 32.3472 31 31.75 31H15.25C14.6528 31 14.0809 30.7786 13.6591 30.3849C13.2372 29.9911 13 29.4574 13 28.9V19.1C13 18.8961 13.0319 18.6957 13.0919 18.5041L22.0525 25.5294C22.8897 26.1857 24.1103 26.1857 24.9474 25.5294L33.9081 18.5041Z" fill="#252944"/>
</svg>
