<svg width="47" height="47" viewBox="0 0 47 47" fill="none" xmlns="http://www.w3.org/2000/svg">
<rect width="47" height="47" rx="6" fill="#EDF9FB"/>
<path d="M25.0188 23.7169H22.9814C20.2302 23.7169 18 25.9469 18 28.6983V30.7362C18 31.6738 18.7606 32.4344 19.6982 32.4344H28.3018C29.2394 32.4344 30 31.6738 30 30.7362V28.6983C30 25.9471 27.77 23.7169 25.0186 23.7169H25.0188Z" fill="#252944"/>
<path d="M27.7483 18.7486C27.7483 20.8196 26.0702 22.4978 23.9999 22.4978C21.9296 22.4978 20.2515 20.8197 20.2515 18.7486C20.2515 16.6784 21.9296 15.0002 23.9999 15.0002C26.0702 15.0002 27.7483 16.6783 27.7483 18.7486Z" fill="#252944"/>
</svg>
