<svg width="11" height="12" viewBox="0 0 11 12" fill="none" xmlns="http://www.w3.org/2000/svg">
<path d="M3.79523 11.5761C4.27835 11.5761 4.67 11.1845 4.67 10.7013C4.67 10.2182 4.27835 9.82658 3.79523 9.82658C3.31212 9.82658 2.92047 10.2182 2.92047 10.7013C2.92047 11.1845 3.31212 11.5761 3.79523 11.5761Z" fill="#252944"/>
<path d="M7.09717 11.5761C7.58029 11.5761 7.97194 11.1845 7.97194 10.7013C7.97194 10.2182 7.58029 9.82658 7.09717 9.82658C6.61406 9.82658 6.22241 10.2182 6.22241 10.7013C6.22241 11.1845 6.61406 11.5761 7.09717 11.5761Z" fill="#252944"/>
<path d="M3.97315 10.9042C4.48306 10.9042 4.89643 10.4908 4.89643 9.98087C4.89643 9.47095 4.48306 9.05759 3.97315 9.05759C3.46323 9.05759 3.04987 9.47095 3.04987 9.98087C3.04987 10.4908 3.46323 10.9042 3.97315 10.9042Z" fill="#252944"/>
<path d="M7.45819 10.9042C7.96811 10.9042 8.38148 10.4908 8.38148 9.98087C8.38148 9.47095 7.96811 9.05759 7.45819 9.05759C6.94828 9.05759 6.53491 9.47095 6.53491 9.98087C6.53491 10.4908 6.94828 10.9042 7.45819 10.9042Z" fill="#252944"/>
<path d="M2.59566 0.432628L2.59566 1.62236C2.59566 1.86174 2.7889 2.05498 3.02829 2.05498C3.26768 2.05498 3.46092 1.86174 3.46092 1.62236V0.432628C3.46092 0.193241 3.26768 5.42565e-09 3.02829 0C2.7889 -5.42565e-09 2.59566 0.193241 2.59566 0.432628Z" fill="#252944"/>
<path d="M6.6336 0.432628L6.6336 1.62236C6.6336 1.86174 6.82684 2.05498 7.06622 2.05498C7.30561 2.05498 7.49885 1.86174 7.49885 1.62236V0.432628C7.49885 0.193241 7.30561 2.29097e-07 7.06622 2.23672e-07C6.82684 2.18246e-07 6.6336 0.193241 6.6336 0.432628Z" fill="#252944"/>
<path d="M2.75151 11.1516H7.34458C8.86311 11.1516 10.0947 9.92003 10.0947 8.40007V3.80844C10.0947 2.70235 9.43706 1.74769 8.49249 1.31218C8.29781 1.22277 8.07572 1.3713 8.07572 1.58617C8.07572 2.06639 7.75702 2.50623 7.28834 2.60718C6.63507 2.74706 6.05679 2.25098 6.05679 1.62078V1.35544C6.05679 1.19104 5.92268 1.05693 5.75828 1.05693H4.33638C4.17198 1.05693 4.03786 1.19104 4.03786 1.35544V1.58617C4.03786 2.09956 3.67013 2.5567 3.16107 2.6216C2.5453 2.70091 2.01893 2.22214 2.01893 1.62078V1.58617C2.01893 1.3713 1.79685 1.22132 1.60217 1.31218C0.657595 1.74769 1.29202e-07 2.70091 1.04101e-07 3.80844L0 8.40151C-3.44168e-08 9.92003 1.23155 11.1516 2.75151 11.1516ZM7.13836 4.87847H7.35468C7.59407 4.87847 7.78731 5.07171 7.78731 5.3111C7.78731 5.55049 7.59407 5.74373 7.35468 5.74373H7.13836C6.89898 5.74373 6.70574 5.55049 6.70574 5.3111C6.70574 5.07171 6.89898 4.87847 7.13836 4.87847ZM7.13836 7.04161H7.35468C7.59407 7.04161 7.78731 7.23486 7.78731 7.47424C7.78731 7.71363 7.59407 7.90687 7.35468 7.90687H7.13836C6.89898 7.90687 6.70574 7.71363 6.70574 7.47424C6.70574 7.23486 6.89898 7.04161 7.13836 7.04161ZM4.9334 4.87847H5.16125C5.40064 4.87847 5.59388 5.07171 5.59388 5.3111C5.59388 5.55049 5.40064 5.74373 5.16125 5.74373H4.9334C4.69402 5.74373 4.50077 5.55049 4.50077 5.3111C4.50077 5.07171 4.69402 4.87847 4.9334 4.87847ZM4.9334 7.04161H5.16125C5.40064 7.04161 5.59388 7.23485 5.59388 7.47424C5.59388 7.71363 5.40064 7.90687 5.16125 7.90687H4.9334C4.69401 7.90687 4.50077 7.71363 4.50077 7.47424C4.50077 7.23485 4.69401 7.04161 4.9334 7.04161ZM2.73998 4.87847H2.95629C3.19568 4.87847 3.38892 5.07171 3.38892 5.3111C3.38892 5.55049 3.19568 5.74373 2.95629 5.74373H2.73998C2.50059 5.74373 2.30735 5.55049 2.30735 5.3111C2.30735 5.07171 2.50059 4.87847 2.73998 4.87847ZM2.73998 7.04161H2.95629C3.19568 7.04161 3.38892 7.23485 3.38892 7.47424C3.38892 7.71363 3.19568 7.90687 2.95629 7.90687H2.73998C2.50059 7.90687 2.30735 7.71363 2.30735 7.47424C2.30735 7.23485 2.50059 7.04161 2.73998 7.04161Z" fill="#252944"/>
</svg>
