<svg width="11" height="11" viewBox="0 0 11 11" fill="none" xmlns="http://www.w3.org/2000/svg">
<path d="M4.26472 10.2783C4.74783 10.2783 5.13948 9.88667 5.13948 9.40356C5.13948 8.92044 4.74783 8.52879 4.26472 8.52879C3.7816 8.52879 3.38995 8.92044 3.38995 9.40356C3.38995 9.88667 3.7816 10.2783 4.26472 10.2783Z" fill="#252944"/>
<path d="M7.56666 10.2783C8.04977 10.2783 8.44142 9.88667 8.44142 9.40356C8.44142 8.92044 8.04977 8.52879 7.56666 8.52879C7.08354 8.52879 6.69189 8.92044 6.69189 9.40356C6.69189 9.88667 7.08354 10.2783 7.56666 10.2783Z" fill="#252944"/>
<path d="M9.03192 6.29829C9.14126 6.29829 9.22874 6.23268 9.25061 6.1452L10.4971 1.72765C10.5409 1.61831 10.4753 1.4871 10.3441 1.46523C10.3222 1.46523 10.3003 1.46523 10.2785 1.46523L2.4056 1.46523C2.4056 1.44336 2.4056 1.42149 2.38373 1.42149L1.96821 0.284298C1.92448 0.131214 1.79326 0.0437381 1.66205 0L0.415512 0C0.174952 0.0218691 0 0.218691 0 0.437381C0 0.677941 0.174952 0.852893 0.415512 0.874762L1.29027 0.874762L1.50896 1.42149L2.82111 6.12333C2.82111 6.16707 2.84298 6.18894 2.86485 6.21081L2.33999 7.47922C2.25251 7.67604 2.36186 7.9166 2.55868 8.00407H2.58055C2.62429 8.02594 2.68989 8.04781 2.7555 8.04781H8.87883C9.11939 8.04781 9.31622 7.85099 9.31622 7.61043C9.31622 7.36987 9.11939 7.17305 8.87883 7.17305L3.34596 7.17305L3.71774 6.29829L9.03192 6.29829Z" fill="#252944"/>
</svg>
