<svg width="47" height="47" viewBox="0 0 47 47" fill="none" xmlns="http://www.w3.org/2000/svg">
<rect width="47" height="47" rx="6" fill="#EDF9FB"/>
<path d="M31.5281 27.5815L29.0392 25.6057C28.5288 25.199 27.7929 25.2522 27.342 25.7239L26.204 26.9223C25.8415 27.3029 25.3148 27.3029 24.7954 27.2136C23.0892 26.916 20.3188 24.3766 19.7904 22.2086C19.6659 21.6964 19.6984 21.1626 20.0817 20.8L21.2801 19.662C21.7536 19.212 21.8041 18.4779 21.3983 17.9648L19.4225 15.4759C18.9535 14.8871 18.0788 14.8366 17.5458 15.3695L16.0272 16.8881C14.7828 18.1326 14.8017 19.9262 15.3834 21.5865C17.0913 26.4525 22.4009 30.8388 25.421 31.6242C27.1245 32.0679 28.8749 32.2248 30.1194 30.9803L31.638 29.4617C32.1692 28.9306 32.1205 28.0531 31.5316 27.5851L31.5281 27.5815Z" fill="#252944"/>
</svg>
