<svg width="38" height="38" viewBox="0 0 38 38" fill="none" xmlns="http://www.w3.org/2000/svg">
<rect width="37.841" height="37.841" rx="4.83077" fill="#EDF9FB"/>
<path d="M17.4787 27.036C18.1819 27.036 18.7519 26.466 18.7519 25.7629C18.7519 25.0598 18.1819 24.4897 17.4787 24.4897C16.7756 24.4897 16.2056 25.0598 16.2056 25.7629C16.2056 26.466 16.7756 27.036 17.4787 27.036Z" fill="#252944"/>
<path d="M22.2844 27.036C22.9875 27.036 23.5575 26.466 23.5575 25.7629C23.5575 25.0598 22.9875 24.4897 22.2844 24.4897C21.5812 24.4897 21.0112 25.0598 21.0112 25.7629C21.0112 26.466 21.5812 27.036 22.2844 27.036Z" fill="#252944"/>
<path d="M15.5793 12.5966L15.5793 14.2371C15.5793 14.5672 15.8457 14.8337 16.1758 14.8337C16.5059 14.8337 16.7724 14.5672 16.7724 14.2371V12.5966C16.7724 12.2665 16.5059 12 16.1758 12C15.8457 12 15.5793 12.2665 15.5793 12.5966Z" fill="#252944"/>
<path d="M21.1473 12.5966L21.1473 14.2371C21.1473 14.5672 21.4138 14.8337 21.7439 14.8337C22.074 14.8337 22.3405 14.5672 22.3405 14.2371V12.5966C22.3405 12.2665 22.074 12 21.7439 12C21.4138 12 21.1473 12.2665 21.1473 12.5966Z" fill="#252944"/>
<path d="M15.7942 27.3774H22.1277C24.2217 27.3774 25.9199 25.6791 25.9199 23.5832V17.2516C25.9199 15.7264 25.0131 14.41 23.7106 13.8094C23.4422 13.6861 23.1359 13.8909 23.1359 14.1872C23.1359 14.8494 22.6965 15.4559 22.0502 15.5951C21.1494 15.788 20.352 15.104 20.352 14.235V13.8691C20.352 13.6424 20.167 13.4574 19.9403 13.4574H17.9796C17.7529 13.4574 17.568 13.6424 17.568 13.8691V14.1872C17.568 14.8952 17.0609 15.5255 16.3589 15.615C15.5098 15.7244 14.784 15.0642 14.784 14.235V14.1872C14.784 13.8909 14.4777 13.6841 14.2093 13.8094C12.9068 14.41 12 15.7244 12 17.2516L12 23.5852C12 25.6791 13.6982 27.3774 15.7942 27.3774ZM21.8434 18.7271H22.1417C22.4718 18.7271 22.7382 18.9936 22.7382 19.3237C22.7382 19.6538 22.4718 19.9203 22.1417 19.9203H21.8434C21.5133 19.9203 21.2468 19.6538 21.2468 19.3237C21.2468 18.9936 21.5133 18.7271 21.8434 18.7271ZM21.8434 21.71H22.1417C22.4718 21.71 22.7382 21.9764 22.7382 22.3065C22.7382 22.6366 22.4718 22.9031 22.1417 22.9031H21.8434C21.5133 22.9031 21.2468 22.6366 21.2468 22.3065C21.2468 21.9764 21.5133 21.71 21.8434 21.71ZM18.8029 18.7271H19.1171C19.4472 18.7271 19.7136 18.9936 19.7136 19.3237C19.7136 19.6538 19.4472 19.9203 19.1171 19.9203H18.8029C18.4728 19.9203 18.2063 19.6538 18.2063 19.3237C18.2063 18.9936 18.4728 18.7271 18.8029 18.7271ZM18.8029 21.71H19.1171C19.4472 21.71 19.7136 21.9764 19.7136 22.3065C19.7136 22.6366 19.4472 22.9031 19.1171 22.9031H18.8029C18.4728 22.9031 18.2063 22.6366 18.2063 22.3065C18.2063 21.9764 18.4728 21.71 18.8029 21.71ZM15.7783 18.7271H16.0765C16.4066 18.7271 16.6731 18.9936 16.6731 19.3237C16.6731 19.6538 16.4066 19.9203 16.0765 19.9203H15.7783C15.4482 19.9203 15.1817 19.6538 15.1817 19.3237C15.1817 18.9936 15.4482 18.7271 15.7783 18.7271ZM15.7783 21.71H16.0765C16.4066 21.71 16.6731 21.9764 16.6731 22.3065C16.6731 22.6366 16.4066 22.9031 16.0765 22.9031H15.7783C15.4482 22.9031 15.1817 22.6366 15.1817 22.3065C15.1817 21.9764 15.4482 21.71 15.7783 21.71Z" fill="#252944"/>
</svg>
