<svg width="47" height="47" viewBox="0 0 47 47" fill="none" xmlns="http://www.w3.org/2000/svg">
<rect width="47" height="47" rx="6" fill="#EDF9FB"/>
<path d="M21.7092 33.5801C22.5826 33.5801 23.2905 32.8722 23.2905 31.9988C23.2905 31.1255 22.5826 30.4175 21.7092 30.4175C20.8359 30.4175 20.1279 31.1255 20.1279 31.9988C20.1279 32.8722 20.8359 33.5801 21.7092 33.5801Z" fill="#252944"/>
<path d="M27.678 33.5801C28.5513 33.5801 29.2593 32.8722 29.2593 31.9988C29.2593 31.1255 28.5513 30.4175 27.678 30.4175C26.8047 30.4175 26.0967 31.1255 26.0967 31.9988C26.0967 32.8722 26.8047 33.5801 27.678 33.5801Z" fill="#252944"/>
<path d="M30.3269 26.3854C30.5246 26.3854 30.6827 26.2668 30.7223 26.1086L32.9756 18.1231C33.0547 17.9254 32.9361 17.6882 32.6989 17.6487C32.6593 17.6487 32.6198 17.6487 32.5803 17.6487H18.3486C18.3486 17.6091 18.3486 17.5696 18.309 17.5696L17.5579 15.5139C17.4789 15.2372 17.2417 15.0791 17.0045 15H14.7511C14.3163 15.0395 14 15.3953 14 15.7907C14 16.2255 14.3163 16.5418 14.7511 16.5813H16.3324L16.7277 17.5696L19.0997 26.0691C19.0997 26.1482 19.1392 26.1877 19.1788 26.2272L18.23 28.5201C18.0718 28.8759 18.2695 29.3108 18.6253 29.4689H18.6648C18.7439 29.5084 18.8625 29.548 18.9811 29.548H30.0502C30.4851 29.548 30.8409 29.1922 30.8409 28.7573C30.8409 28.3225 30.4851 27.9667 30.0502 27.9667H20.0485L20.7205 26.3854H30.3269Z" fill="#252944"/>
</svg>
