<svg width="12" height="8" viewBox="0 0 12 8" fill="none" xmlns="http://www.w3.org/2000/svg">
<path fill-rule="evenodd" clip-rule="evenodd" d="M0.531828 0.201225C0.734661 0.0710467 0.976313 0 1.22615 0H10.2181C10.468 0 10.7096 0.0710504 10.9125 0.201225L5.98473 4.06423C5.83298 4.18344 5.61125 4.18344 5.45952 4.06423L0.531828 0.201225ZM11.3943 0.819696C11.427 0.924126 11.4444 1.03332 11.4444 1.14444V6.48513C11.4444 6.78889 11.3151 7.07976 11.0852 7.29434C10.8553 7.50892 10.5436 7.62957 10.2182 7.62957H1.22618C0.900729 7.62957 0.589077 7.50893 0.359169 7.29434C0.129262 7.07976 0 6.78889 0 6.48513V1.14444C0 1.03333 0.0173705 0.92413 0.0500687 0.819696L4.93334 4.64827C5.38959 5.00591 6.05478 5.00591 6.51096 4.64827L11.3943 0.819696Z" fill="#252944"/>
</svg>
