<svg width="49" height="49" viewBox="0 0 49 49" fill="none" xmlns="http://www.w3.org/2000/svg">
<circle cx="24.0437" cy="24.0437" r="23.2423" stroke="#4BB2E5" stroke-width="1.60291"/>
<path fill-rule="evenodd" clip-rule="evenodd" d="M15.3201 17.9922C15.661 17.7597 16.0672 17.6328 16.4871 17.6328H31.6003C32.0202 17.6328 32.4264 17.7597 32.7673 17.9922L24.485 24.8907C24.23 25.1035 23.8573 25.1035 23.6023 24.8907L15.3201 17.9922ZM33.5771 19.0966C33.632 19.2831 33.6612 19.4781 33.6612 19.6765V29.2139C33.6612 29.7563 33.444 30.2758 33.0576 30.6589C32.6712 31.0421 32.1474 31.2576 31.6004 31.2576H16.4872C15.9402 31.2576 15.4164 31.0421 15.0299 30.6589C14.6435 30.2758 14.4263 29.7563 14.4263 29.2139V19.6765C14.4263 19.4781 14.4555 19.2831 14.5104 19.0966L22.7179 25.9336C23.4848 26.5723 24.6028 26.5723 25.3695 25.9336L33.5771 19.0966Z" fill="#4BB2E5"/>
</svg>
