<svg width="49" height="49" viewBox="0 0 49 49" fill="none" xmlns="http://www.w3.org/2000/svg">
<circle cx="24.0437" cy="24.0437" r="23.2423" stroke="#4BB2E5" stroke-width="1.60291"/>
<path fill-rule="evenodd" clip-rule="evenodd" d="M24.0438 14.4268C18.7322 14.4268 14.4263 18.7326 14.4263 24.0442C14.4263 25.538 14.7673 26.9541 15.3764 28.217L14.5889 32.0543C14.4128 32.9124 15.1625 33.6752 16.0235 33.5142L19.9961 32.7708C21.2273 33.3428 22.5993 33.6617 24.0438 33.6617C29.3554 33.6617 33.6612 29.3559 33.6612 24.0442C33.6612 18.7326 29.3554 14.4268 24.0438 14.4268ZM19.3583 22.0714C19.3583 21.6628 19.6895 21.3316 20.0981 21.3316H26.0166C26.4251 21.3316 26.7564 21.6628 26.7564 22.0714C26.7564 22.48 26.4251 22.8112 26.0166 22.8112H20.0981C19.6895 22.8112 19.3583 22.48 19.3583 22.0714ZM20.0981 25.2773C19.6895 25.2773 19.3583 25.6085 19.3583 26.0171C19.3583 26.4256 19.6895 26.7569 20.0981 26.7569H27.9894C28.398 26.7569 28.7292 26.4256 28.7292 26.0171C28.7292 25.6085 28.398 25.2773 27.9894 25.2773H20.0981Z" fill="#4BB2E5"/>
</svg>
