<svg width="10" height="10" viewBox="0 0 10 10" fill="none" xmlns="http://www.w3.org/2000/svg">
<path d="M9.00728 6.85656L7.65093 5.7798C7.37277 5.55816 6.97175 5.58716 6.72602 5.84418L6.10582 6.49731C5.90826 6.70469 5.62125 6.70469 5.33817 6.65604C4.40836 6.49386 2.89859 5.10996 2.61062 3.92848C2.5428 3.64934 2.56049 3.35841 2.76935 3.16084L3.42248 2.54063C3.68049 2.29541 3.70801 1.89537 3.48686 1.61573L2.4101 0.259374C2.15456 -0.0615421 1.67785 -0.0890567 1.38741 0.201383L0.559816 1.02897C-0.118375 1.70716 -0.108059 2.68463 0.208919 3.58946C1.13971 6.24128 4.03329 8.63167 5.67914 9.05967C6.60747 9.30147 7.56138 9.38698 8.23962 8.70878L9.06721 7.88119C9.35667 7.59172 9.33013 7.11355 9.00922 6.85849L9.00728 6.85656Z" fill="#252944"/>
</svg>
