<svg width="49" height="49" viewBox="0 0 49 49" fill="none" xmlns="http://www.w3.org/2000/svg">
<circle cx="24.0437" cy="24.0437" r="23.2423" stroke="#4BB2E5" stroke-width="1.60291"/>
<path d="M27.5111 32.0248C26.3599 31.8659 25.2656 31.4465 24.3201 30.802C23.2243 30.0759 22.2178 29.2351 21.3194 28.2954C20.2158 27.1735 19.0921 26.0661 18.1182 24.8289C17.3516 23.8352 16.6659 22.7935 16.2919 21.5963C16.0318 20.8351 15.9637 20.0264 16.0931 19.2356C16.2616 18.2916 16.7872 17.5239 17.5066 16.8813C17.8034 16.6289 18.1256 16.405 18.4687 16.213C18.6729 16.0895 18.9107 16.0257 19.1526 16.0294C19.3946 16.0332 19.63 16.1042 19.83 16.2338C20.7879 16.776 21.5221 17.6135 21.9108 18.6073C21.9774 18.7473 22.0033 18.9018 21.9858 19.0546C21.9683 19.2074 21.9081 19.3529 21.8114 19.476C21.5704 19.7853 21.3194 20.0866 21.0768 20.3959C20.8628 20.67 20.6404 20.9392 20.45 21.2277C20.352 21.3591 20.3001 21.5166 20.3016 21.6777C20.3031 21.8389 20.358 21.9954 20.4584 22.1252C20.9386 22.7662 21.4036 23.4265 21.9259 24.0371C22.8709 25.1499 23.9173 26.1812 25.0529 27.1191C25.3057 27.3258 25.5769 27.5085 25.8465 27.696C25.9613 27.7809 26.0994 27.8327 26.2442 27.8452C26.389 27.8577 26.5346 27.8304 26.6636 27.7665C26.9525 27.6311 27.2337 27.4813 27.506 27.3178C27.8834 27.0886 28.2541 26.853 28.6248 26.627C28.7776 26.534 28.9544 26.483 29.1358 26.4796C29.3172 26.4762 29.496 26.5206 29.6525 26.6078C30.6084 27.059 31.3877 27.789 31.8765 28.6913C32.0139 28.9166 32.0759 29.1764 32.0542 29.4361C32.0325 29.6957 31.9282 29.943 31.7552 30.1449C30.8235 31.3084 29.6323 32.0264 28.0486 32.0584C27.8689 32.056 27.6895 32.0447 27.5111 32.0248Z" fill="#4BB2E5"/>
</svg>
